PathFileType	4	(X/Y/Z)	C:/Users/opensim2020/Desktop/walking_exp_matlab/subject01_walking13_straight_01.trc	
DataRate	CameraRate	NumFrames	NumMarkers	Units	OrigDataRate	OrigDataStartFrame	OrigNumFrames	
100.00	100.00	8	42	mm	100.00	726	142	
Frame#	Time	LFHD			RFHD			LBHD			RBHD			C7			T10			CLAV			STRN			RBAK			LSHO			LUPA			LELB			LFRM			LWRA			LWRB			LFIN			RSHO			RUPA			RELB			RFRM			RWRA			RWRB			RFIN			LASI			RASI			LPSI			RPSI			LTHI			LKNE			LTIB			LANK			LHEE			LTOE			RTHI			RKNE			RTIB			RANK			RHEE			RTOE			*39			*40			*41			
		X1	Y1	Z1	X2	Y2	Z2	X3	Y3	Z3	X4	Y4	Z4	X5	Y5	Z5	X6	Y6	Z6	X7	Y7	Z7	X8	Y8	Z8	X9	Y9	Z9	X10	Y10	Z10	X11	Y11	Z11	X12	Y12	Z12	X13	Y13	Z13	X14	Y14	Z14	X15	Y15	Z15	X16	Y16	Z16	X17	Y17	Z17	X18	Y18	Z18	X19	Y19	Z19	X20	Y20	Z20	X21	Y21	Z21	X22	Y22	Z22	X23	Y23	Z23	X24	Y24	Z24	X25	Y25	Z25	X26	Y26	Z26	X27	Y27	Z27	X28	Y28	Z28	X29	Y29	Z29	X30	Y30	Z30	X31	Y31	Z31	X32	Y32	Z32	X33	Y33	Z33	X34	Y34	Z34	X35	Y35	Z35	X36	Y36	Z36	X37	Y37	Z37	X38	Y38	Z38	X39	Y39	Z39	X40	Y40	Z40	X41	Y41	Z41	X42	Y42	Z42	

125	1.240	-1026.29956	943.40283	1646.31055	-911.47974	946.14124	1646.79639	-1032.13672	821.53644	1621.44495	-910.57111	820.57953	1621.06750	-994.92786	748.51593	1421.22144	-990.31421	717.80109	1123.06824	-987.76044	891.97235	1351.25610	-999.92365	938.52368	1200.29333	-927.10168	693.26270	1218.97742	-1149.53479	835.30817	1387.46155	-1251.92175	833.30353	1215.92993	-1284.03259	865.11804	1068.34607	-1280.58679	978.72400	1028.31396	-1228.83667	1106.59399	1025.54065	-1260.30078	1087.58997	978.77899	-1258.22815	1169.68835	984.10931	-838.94952	818.24823	1374.69397	-752.89307	725.63226	1182.85181	-752.59625	706.82977	1060.72119	-723.47400	700.54352	941.63226	-740.12280	746.13507	807.25714	-705.69287	701.38049	819.48541	-702.59479	717.92377	736.13635	-1114.12756	892.14539	923.85016	-900.85028	916.25494	927.15997	-1040.86450	712.60254	929.17133	-895.67365	730.28046	930.22687	-1181.99609	812.78064	592.24353	-1179.92749	777.22473	460.95068	-1187.46106	629.21283	346.11984	-1149.19214	470.87549	189.29817	-1096.41931	432.30811	214.80377	-1120.29980	496.23953	43.01300	-850.00311	949.96246	603.10669	-888.67944	1002.59503	455.93326	-884.88483	979.84943	278.79678	-943.04968	981.55859	77.47951	-993.53552	933.01404	40.78529	-947.13300	1122.61475	41.97266	-933.99091	942.93823	1681.89355	-3101.83130	1973.15454	1023.77539	-3140.69751	2012.46692	1022.07654 
126	1.250	-1022.83801	956.11169	1647.73059	-908.10870	958.52002	1647.94775	-1029.03711	834.39941	1622.29309	-907.66571	833.64508	1621.43726	-992.63940	761.80481	1422.29431	-988.90063	731.13940	1124.11511	-985.12268	905.32385	1352.27808	-997.45514	951.78113	1201.37573	-925.43427	706.56439	1219.84680	-1147.11975	849.00409	1388.41418	-1249.30774	845.16937	1216.71228	-1281.69812	875.07513	1068.97253	-1278.37463	988.04620	1027.26404	-1226.38232	1115.85950	1022.12781	-1258.01221	1096.04517	975.71405	-1255.57031	1178.24561	979.35919	-836.40936	831.43707	1375.67993	-750.53009	740.60986	1183.04529	-750.77380	722.35370	1060.86829	-721.69000	716.55664	941.82654	-738.39642	762.69250	807.61731	-703.87207	717.99133	819.76990	-700.93756	734.67120	736.17084	-1111.35254	906.04797	924.85718	-898.48224	928.81335	928.67346	-1040.00671	726.01422	929.63721	-894.98547	742.87854	931.95502	-1181.18787	833.34094	591.66589	-1180.27173	801.33075	459.80783	-1189.01428	652.18536	348.25220	-1150.88196	489.42957	197.76117	-1098.88037	452.84573	226.04416	-1122.30322	504.18561	48.60305	-847.82202	963.59796	603.99896	-887.46631	1012.21472	455.10889	-883.66766	984.96497	278.82690	-942.98236	982.04956	77.46210	-993.28577	933.12805	40.99335	-947.11627	1123.18445	41.52874	-930.58722	954.95349	1683.10352	-3101.80981	1973.11060	1023.46185	-3140.67114	2012.52417	1022.05273 
127	1.260	-1019.44312	968.87012	1649.26660	-904.78009	970.80872	1649.05237	-1026.10083	847.33203	1623.32190	-904.59912	845.68811	1622.22412	-990.43274	775.21814	1423.66150	-987.64032	744.03528	1125.41663	-982.71387	918.50317	1353.53625	-995.11755	964.77936	1202.46643	-923.69531	719.62415	1220.99829	-1144.87695	862.59808	1389.56519	-1246.92212	856.95081	1217.65466	-1279.63782	884.77539	1069.73474	-1275.96582	996.95807	1025.88525	-1224.10181	1124.67822	1018.25555	-1255.78430	1103.94556	972.21283	-1252.97241	1186.25781	973.91022	-834.19623	844.59613	1376.91833	-748.08435	755.44476	1183.63220	-748.93964	737.94006	1061.26819	-720.02594	732.78229	942.20105	-736.71118	779.75812	808.17426	-702.16534	735.24554	820.21722	-699.36176	752.22754	736.56445	-1109.42871	919.42938	925.89771	-895.94470	941.17133	930.23505	-1038.95117	739.23511	930.27118	-894.04852	755.26910	933.46246	-1180.21179	854.45612	591.52338	-1180.24646	826.48236	458.97900	-1190.46777	675.84698	350.53152	-1151.58984	509.35620	206.95195	-1099.62952	474.31836	236.65538	-1124.95715	515.36987	55.34445	-845.65363	974.29218	604.58270	-885.73737	1020.35822	454.71057	-883.09302	989.64594	279.05435	-942.90686	982.54181	77.71923	-993.10785	933.22601	41.32249	-947.33112	1123.73450	41.18871	-927.09851	966.74133	1684.34351	-3102.00464	1973.17773	1023.42194	-3140.61011	2012.50659	1022.11322 
128	1.270	-1016.02893	981.64044	1650.81494	-901.32666	983.15851	1650.29089	-1023.28918	860.20142	1624.54260	-901.90613	858.56329	1623.03467	-988.44458	788.50073	1425.22998	-986.31360	756.82233	1127.01538	-980.52228	931.49377	1354.84790	-992.93445	977.63855	1203.73071	-921.92340	732.40912	1222.47742	-1142.74768	875.98053	1390.83911	-1244.63000	868.58051	1218.73608	-1277.17480	894.16656	1070.53040	-1273.71948	1005.52344	1024.36865	-1221.89722	1133.08044	1013.91449	-1253.47351	1111.24353	968.18207	-1250.47766	1193.72876	967.82819	-832.12500	857.16522	1378.37927	-746.01727	770.26874	1184.19946	-747.14008	753.45343	1061.82849	-718.34528	749.35291	942.70441	-735.10638	797.31299	809.01959	-700.45447	752.55444	820.64825	-697.81573	770.22882	737.11835	-1107.43030	932.64313	927.20203	-893.44910	953.33252	931.72479	-1037.80823	752.34045	930.99109	-892.78857	767.27014	934.87286	-1179.16455	875.88678	591.66974	-1179.92261	852.08093	458.63751	-1191.62463	699.98126	352.95932	-1150.91760	529.39087	215.64867	-1097.52515	496.50751	245.44040	-1129.02405	530.10992	62.34233	-844.32031	981.73346	604.54352	-884.12158	1026.90405	453.86929	-882.42242	993.64203	278.82150	-942.79242	982.83600	77.91921	-993.18018	932.98596	41.85571	-947.32715	1123.89197	40.74198	-923.45966	978.66217	1685.55298	-3101.98389	1973.16650	1023.59961	-3140.59082	2012.56116	1022.12982 
129	1.280	-1012.81482	994.35291	1652.43347	-898.24585	995.23029	1651.27747	-1020.56909	873.02655	1625.86096	-899.14441	870.53174	1623.96082	-986.47821	801.37323	1426.80920	-984.97577	769.53033	1128.60083	-978.51215	944.34412	1356.28564	-990.94794	990.33618	1205.04834	-920.07672	745.06085	1224.13147	-1140.72961	889.15570	1392.27747	-1242.65271	880.03821	1219.99255	-1274.45313	903.34692	1071.46143	-1271.50024	1013.65399	1022.67865	-1219.82581	1141.11572	1009.17682	-1251.24255	1118.09778	963.98541	-1248.03125	1200.61987	961.18060	-830.37714	869.87122	1379.87354	-743.85864	784.71912	1185.03015	-745.26764	768.84821	1062.49463	-716.69696	765.82983	943.33771	-733.48456	815.41241	810.15466	-698.77753	770.55243	821.33966	-696.05334	789.35101	738.10138	-1105.28760	945.77728	928.71423	-890.79108	965.24292	933.16913	-1036.51404	765.28851	931.95343	-891.43787	779.04095	936.00806	-1177.96021	897.75891	592.15637	-1179.31909	877.63525	458.86862	-1192.48450	724.55652	355.59470	-1149.19434	549.93512	223.96503	-1093.44482	518.26178	252.30939	-1134.32300	548.24750	70.02773	-843.01208	987.71411	603.93921	-882.41455	1032.87866	453.31766	-881.56146	996.87964	278.71130	-942.74042	983.10962	78.05432	-993.22174	933.11804	42.09130	-947.36652	1124.12170	40.46713	-920.03674	990.86316	1686.76941	-3101.87988	1973.19702	1023.49664	-3140.69116	2012.58362	1022.14990 
130	1.290	-1009.69977	1007.03986	1654.07898	-895.14526	1007.49982	1652.51538	-1018.03027	885.80182	1627.38647	-896.57880	882.88629	1625.04468	-984.89648	813.97180	1428.27515	-983.58124	782.08966	1130.25903	-976.64893	956.90399	1357.85425	-989.02130	1002.88330	1206.50549	-918.16504	757.55023	1225.89282	-1138.94629	902.11847	1393.86377	-1240.98462	891.12799	1221.46826	-1271.93372	912.24255	1072.37292	-1269.18677	1021.39832	1020.77930	-1217.83740	1148.71912	1004.06390	-1249.07458	1124.42114	959.49060	-1245.68213	1206.84973	953.94336	-828.66821	882.51489	1381.46619	-741.79114	798.95856	1186.06848	-743.41302	783.91345	1063.33313	-714.96014	782.49713	944.10364	-731.58368	834.03442	811.84296	-697.31403	788.72211	822.19324	-694.33374	808.90485	739.22284	-1103.71008	958.68628	930.15503	-888.09229	976.91516	934.46490	-1035.15686	778.03430	933.10394	-889.98914	790.87012	937.34436	-1176.81970	919.76379	593.32361	-1178.34473	902.90143	459.96408	-1192.65918	749.22314	358.50620	-1146.61707	571.61035	231.24814	-1088.89331	540.39484	257.39825	-1139.34070	570.20825	77.23864	-842.02606	992.91156	602.84546	-880.68250	1038.35901	452.71582	-880.81024	999.98810	278.68845	-942.63220	983.52136	78.10074	-993.16113	933.28937	42.67619	-947.22888	1124.46802	40.44633	-916.67181	1003.28815	1688.08508	-3101.84058	1973.12842	1023.57990	-3140.61279	2012.57190	1022.20502 
131	1.300	-1006.78430	1019.67566	1655.74622	-892.14783	1019.86548	1653.88220	-1015.56342	898.51129	1628.99841	-894.21777	895.13855	1626.26208	-983.23889	826.40680	1429.78564	-982.08984	794.58179	1131.98694	-974.92212	969.38348	1359.49719	-987.30121	1015.37201	1208.09583	-916.19098	769.99554	1227.61609	-1137.29150	914.85022	1395.56006	-1239.30273	902.10242	1223.07263	-1269.44373	920.83417	1073.29419	-1266.94080	1028.79504	1018.76770	-1215.92566	1155.87793	998.58679	-1246.95886	1130.20483	954.68201	-1243.49683	1212.48547	946.39935	-827.10779	894.87701	1383.05505	-739.77515	812.89655	1187.29260	-741.54651	798.77606	1064.26611	-713.22803	799.32574	944.82056	-730.37030	852.48083	813.09003	-695.78259	807.72437	823.07452	-692.61792	829.32037	740.59625	-1101.63989	971.63739	931.96136	-885.22046	988.42126	935.66449	-1033.62366	790.68604	934.51575	-888.50677	802.34570	938.72742	-1175.38708	941.71570	595.31903	-1176.89270	927.77771	462.03754	-1192.14685	773.91913	361.69113	-1143.77551	594.53406	237.66629	-1084.70544	562.71863	261.07965	-1143.71875	595.19861	83.31538	-841.00800	998.03204	601.97998	-878.75159	1043.16235	451.75092	-880.19080	1002.41656	278.26605	-942.60498	983.77130	78.21918	-993.30560	933.20447	43.04278	-947.14569	1124.45679	40.20739	-913.61267	1015.81494	1689.56665	-3101.96948	1973.13867	1023.41205	-3140.71411	2012.55371	1022.13165 
132	1.310	-1003.98376	1032.22815	1657.41724	-889.41400	1032.04297	1655.22729	-1013.25250	911.06628	1630.75903	-891.97852	907.35889	1627.66248	-981.76709	838.77325	1431.40186	-980.67926	806.98309	1133.70874	-973.32794	981.77527	1361.22241	-985.55664	1027.76123	1209.73682	-914.43506	782.26166	1229.40576	-1135.67639	927.38086	1397.29675	-1237.54382	912.92963	1224.76038	-1266.99756	929.36285	1074.31116	-1264.67273	1035.87036	1016.61249	-1214.06775	1162.55115	992.79095	-1244.88721	1135.44360	949.63757	-1241.36316	1217.45740	938.62030	-825.46613	907.27887	1384.80566	-737.76874	826.56573	1188.68848	-739.62872	813.36176	1065.27002	-711.42194	816.15717	945.58282	-728.83588	871.85468	814.98059	-693.90405	827.17096	824.06091	-690.87872	850.24847	742.11652	-1099.34656	985.47089	934.28217	-882.29639	999.73474	936.73376	-1032.20886	803.28540	936.19586	-887.51062	814.17023	940.08136	-1174.00159	963.26251	598.06097	-1175.49902	952.15405	465.04581	-1190.48718	798.41559	364.94910	-1141.20410	618.25861	242.41431	-1081.48975	585.43903	263.49637	-1147.27319	622.35779	88.59705	-839.75739	1003.37671	601.58789	-877.07202	1047.42004	450.84152	-879.24487	1004.45715	277.80771	-942.39990	984.02588	78.38844	-993.25891	933.53619	43.29915	-947.04865	1124.52917	40.16777	-910.67456	1028.17529	1691.03796	-3101.94287	1973.01453	1023.81995	-3140.66382	2012.49951	1022.11011 
